<svg xmlns="http://www.w3.org/2000/svg" xmlns:xlink="http://www.w3.org/1999/xlink" x="0px" y="0px" viewBox="0 0 50.1314354 49.4648323"><path fill="#fff" d="M25.0657082,49.4648323L25.0657082,49.4648323C7.7844591,49.4648323,0,40.5237274,0,28.3366642v-7.7919445 C0,9.2451239,7.5344591,0,25.0657082,0l0,0c17.3125,0,25.0657272,9.0549793,25.0657272,21.2737293v7.3129101 C50.1314354,40.3987274,42.1907082,49.4648323,25.0657082,49.4648323z"/><path d="M26.1267166,24.7322903l6.5410004-6.5409985c0.2929993-0.2930012,0.2929993-0.7680016,0-1.0610008 s-0.7679996-0.2929993-1.0609989,0l-6.5410004,6.5410004l-6.5410004-6.5400009 c-0.2929993-0.2929993-0.7679996-0.2929993-1.0610008,0c-0.2929993,0.2930012-0.2929993,0.7679996,0,1.0610008l6.5410004,6.5410004 l-6.539999,6.539999c-0.2930012,0.2930012-0.2930012,0.7679996,0,1.0609989 c0.1469994,0.1459999,0.3379993,0.2200012,0.5299988,0.2200012c0.1920013,0,0.3840008-0.072998,0.5300007-0.2200012 l6.5410004-6.5409985l6.5409985,6.5409985c0.1470013,0.1459999,0.3380013,0.2200012,0.5299988,0.2200012 c0.1920013,0,0.3840027-0.072998,0.5300026-0.2200012c0.2929993-0.2929993,0.2929993-0.7679977,0-1.0609989L26.1267166,24.7322903z"/></svg>